<?xml version="1.0" encoding="UTF-8"?><svg id="Layer_2" xmlns="http://www.w3.org/2000/svg" viewBox="0 0 615.92 100.31"><defs><style>.cls-1,.cls-2{fill:#323178;}.cls-3{fill:#6882d4;stroke:#6882d4;}.cls-3,.cls-2{stroke-linecap:round;stroke-linejoin:round;}.cls-2{stroke:#323178;}</style></defs><g id="Layer_1-2"><path class="cls-2" d="M20.35,93.58c-3.08-1.62-2.44-4.34-2.83-8.59-.12-2.97-.23-5.03-.34-7.16-.28-4.1-.24-4.2-.98-5.21-.4-.52-1.01-1.06-1.57-1.46-5.44-3.96-9.33-9.53-11.63-15.79C-1.82,42.27.33,26.21,9.51,15.48c4.24-5.79,9.82-10.51,16.96-12.96,2.48-.75,6.66-1.78,9.69-1.96,4.07-.11,10.51,0,14.58-.04,4.72,0,7.94.01,11.91.14,15.56.53,27.67,11.39,30.09,26.29.71,4.38.77,9.13.41,13.57-.53,5.58-1.35,10.08-4.63,13.68-2.99,3.23-8.2,2.29-11.11-.64-2.16-1.95-1.93-4.16-1.07-6.88,5.19-15.04.34-30.79-17.44-30.04-.03,0-.06,0-.09,0-4.29-.1-10.14-.24-14.4-.29-3.38-.08-9.6-.12-11.08.39-18.56,4.24-21.63,31.69-9.22,43.99,5.16,4.95,11.87,6.07,19.94,6.2,1.71.13,2.64,1.69,3.31,3.08,1.67,3.4,4.29,7.44,6.18,9.68.38.45.97,1.14,1.28,1.64.15.23.18.31.15.33-.56.27-3.82.26-5.17.3-6.87.25-11.17-.9-16.53,4.32-2.53,2.17-5.11,4.75-7.63,6.17-2.15,1.24-3.26,1.94-5.15,1.18l-.12-.05Z"/><path class="cls-3" d="M121.44,91.75c-1.05,1.92-3.7,2.75-5.59,1.67-1.5-.72-5.83-4.32-8.15-6.22-1.66-1.35-4.03-3.39-5.6-4.2-.58-.37-3.17-.36-4.37-.34-5.85.1-15.14.14-19.98-.53-5.96-.88-11.57-3.52-16.43-7.68-9.93-8.77-13.6-27.79-9.13-40.49,1.49-3.88,3.8-6.31,6.69-6.8,3.35-.52,6.86,1.11,7.92,4.21,1.37,3.13-.63,6.78-1.46,9.92-.02.09-.04.17-.06.26-1.66,8.85,2.16,20.1,10.29,23.84,1.4.68,3.01,1.17,4.56,1.4,3.08.43,12.05.67,18.4.49,2.24-.09,5.14-.03,7.06-.6,5.55-1.42,10.02-5.17,12.86-10.09,6.79-12.38,4.08-31.44-9.09-37.28-1.89-.87-4.1-1.42-6.11-1.7-.86-.15-1.73-.2-2.79-.31-.46-.08-1.09,0-1.36-.41-.44-.91-.83-2.36-1.21-3.38-1.67-4.82-3.43-8.34-5.4-11.39-.13-.31-.06-.5.22-.57,1.37-.32,4.9.02,6.52.12,1.03.06,1.97.13,3.04.29,9.13,1.2,16.29,4.19,22.96,10.93,9.29,8.98,12.36,21.14,11.6,33.56-.38,9.13-5.49,18.52-10.98,25.02-.53.66-1.61,1.93-2.33,2.79-.37.45-.6,1-.66,1.58-.36,3.79-1.05,13.71-1.19,15.27-.02.22-.06.29-.2.58l-.03.05Z"/><path class="cls-1" d="M158.67,7.73h13.09v58.09h36.31v12.52h-49.4V7.73Z"/><path class="cls-1" d="M212.82,12.41c0-4.49,3.44-7.84,7.93-7.84s7.93,3.34,7.93,7.84-3.54,7.84-7.93,7.84-7.93-3.34-7.93-7.84ZM214.44,78.34V26.46h12.52v51.88h-12.52Z"/><path class="cls-1" d="M238.38,26.46h12.23v7.26c2.77-5.06,8.69-8.6,16.34-8.6,10.51,0,20.35,6.88,20.35,21.59v31.63h-12.52v-28.19c0-8.89-4.68-13.66-11.37-13.66-7.45,0-12.61,5.73-12.61,13.85v28h-12.42V26.46Z"/><path class="cls-1" d="M349.94,26.46v46.72c0,16.82-11.85,27.14-28.57,27.14-9.08,0-17.48-3.06-23.6-7.45l5.06-9.46c4.68,3.25,11.27,6.11,18.25,6.11,10.8,0,16.82-6.5,16.82-15.1v-3.06c-3.73,4.2-9.17,7.07-16.53,7.07-15.19,0-25.89-11.37-25.89-26.56s11.66-26.66,26.37-26.66c7.26,0,12.61,3.06,16.43,7.45v-6.21h11.66ZM338.28,51.97c0-8.89-6.4-15.38-15.1-15.38s-15.19,6.5-15.19,15.38,6.4,15.57,15.19,15.57,15.1-6.69,15.1-15.57Z"/><path class="cls-1" d="M358.56,52.35c0-15,11.27-27.23,27.71-27.23s27.71,12.23,27.71,27.23-11.27,27.33-27.71,27.33-27.71-12.23-27.71-27.33ZM401.47,52.35c0-8.6-6.59-15.67-15.19-15.67s-15.19,7.07-15.19,15.67,6.59,15.77,15.19,15.77,15.19-6.98,15.19-15.77Z"/><path class="cls-1" d="M424.18,7.73h13.09v58.09h36.31v12.52h-49.4V7.73Z"/><path class="cls-1" d="M478.33,12.41c0-4.49,3.44-7.84,7.93-7.84s7.93,3.34,7.93,7.84-3.54,7.84-7.93,7.84-7.93-3.34-7.93-7.84ZM479.95,78.34V26.46h12.52v51.88h-12.52Z"/><path class="cls-1" d="M503.89,26.46h12.23v7.26c2.77-5.06,8.69-8.6,16.34-8.6,10.51,0,20.35,6.88,20.35,21.59v31.63h-12.52v-28.19c0-8.89-4.68-13.66-11.37-13.66-7.45,0-12.61,5.73-12.61,13.85v28h-12.42V26.46Z"/><path class="cls-1" d="M615.92,26.46v73.19h-12.52v-27.8c-3.92,4.49-9.46,7.74-16.82,7.74-14.91,0-25.61-12.13-25.61-27.23s10.7-27.14,25.61-27.14c7.45,0,12.99,3.44,16.91,8.03v-6.78h12.42ZM603.79,52.44c0-8.6-6.02-15.77-15.1-15.77s-15.1,7.17-15.1,15.77,5.92,15.76,15.1,15.76,15.1-7.07,15.1-15.76Z"/></g></svg>